<svg width="20" height="20" viewBox="0 0 20 20" fill="none" xmlns="http://www.w3.org/2000/svg">
<path opacity="0.3" d="M13.7535 1.04163H6.24642C3.37189 1.04163 1.04163 3.37189 1.04163 6.24642V13.7535C1.04163 16.628 3.37189 18.9583 6.24642 18.9583H13.7535C16.628 18.9583 18.9583 16.628 18.9583 13.7535V6.24642C18.9583 3.37189 16.628 1.04163 13.7535 1.04163Z" fill="#FFA300"/>
<path d="M9.74033 13.3237L15.1153 7.94875C15.1989 7.86522 15.2651 7.76606 15.3103 7.65693C15.3555 7.5478 15.3788 7.43083 15.3788 7.31271C15.3788 7.19458 15.3555 7.07762 15.3103 6.96848C15.2651 6.85935 15.1989 6.76019 15.1153 6.67667C15.0318 6.59314 14.9326 6.52688 14.8235 6.48168C14.7144 6.43647 14.5974 6.41321 14.4793 6.41321C14.3612 6.41321 14.2442 6.43647 14.1351 6.48168C14.0259 6.52688 13.9268 6.59314 13.8433 6.67667L9.10429 11.4246L6.157 8.46833C5.98831 8.29964 5.75952 8.20487 5.52096 8.20487C5.2824 8.20487 5.05361 8.29964 4.88492 8.46833C4.71623 8.63702 4.62146 8.86581 4.62146 9.10437C4.62146 9.34294 4.71623 9.57173 4.88492 9.74041L8.46825 13.3237C8.55153 13.4077 8.65061 13.4744 8.75978 13.5198C8.86894 13.5653 8.98603 13.5887 9.10429 13.5887C9.22255 13.5887 9.33964 13.5653 9.44881 13.5198C9.55797 13.4744 9.65705 13.4077 9.74033 13.3237Z" fill="#FFA300"/>
</svg>
