<svg width="17" height="20" viewBox="0 0 17 20" fill="none" xmlns="http://www.w3.org/2000/svg">
<path d="M16.6684 16.5495C16.6684 17.4957 16.3971 18.3073 15.8546 18.9844C15.312 19.6615 14.6588 20 13.8949 20H2.77515C2.01126 20 1.35805 19.6615 0.815511 18.9844C0.272976 18.3073 0.00170898 17.4957 0.00170898 16.5495C0.00170898 15.8116 0.0386013 15.115 0.112386 14.4596C0.186171 13.8043 0.32289 13.1445 0.522542 12.4805C0.722195 11.8164 0.976101 11.2478 1.28426 10.7747C1.59242 10.3016 2.00041 9.91536 2.50822 9.61588C3.01603 9.31641 3.5998 9.16667 4.25952 9.16667C5.39667 10.2778 6.75518 10.8333 8.33504 10.8333C9.9149 10.8333 11.2734 10.2778 12.4106 9.16667C13.0703 9.16667 13.6541 9.31641 14.1619 9.61588C14.6697 9.91536 15.0777 10.3016 15.3858 10.7747C15.694 11.2478 15.9479 11.8164 16.1475 12.4805C16.3472 13.1445 16.4839 13.8043 16.5577 14.4596C16.6315 15.115 16.6684 15.8116 16.6684 16.5495ZM13.335 5C13.335 6.38021 12.8468 7.55859 11.8702 8.53516C10.8936 9.51172 9.71525 10 8.33504 10C6.95483 10 5.77645 9.51172 4.79989 8.53516C3.82332 7.55859 3.33504 6.38021 3.33504 5C3.33504 3.61979 3.82332 2.44141 4.79989 1.46484C5.77645 0.488281 6.95483 0 8.33504 0C9.71525 0 10.8936 0.488281 11.8702 1.46484C12.8468 2.44141 13.335 3.61979 13.335 5Z" fill="black"/>
</svg>
