<svg width="17" height="12" viewBox="0 0 17 12" fill="none" xmlns="http://www.w3.org/2000/svg">
<path d="M9.44444 3C9.44444 2.44772 9.86729 2 10.3889 2H11.3333C11.8549 2 12.2778 2.44772 12.2778 3V11C12.2778 11.5523 11.8549 12 11.3333 12H10.3889C9.86729 12 9.44444 11.5523 9.44444 11V3Z" fill="#121213"/>
<path d="M14.1667 1C14.1667 0.447715 14.5895 0 15.1111 0H16.0556C16.5772 0 17 0.447715 17 1V11C17 11.5523 16.5772 12 16.0556 12H15.1111C14.5895 12 14.1667 11.5523 14.1667 11V1Z" fill="#121213"/>
<path d="M4.72222 6.5C4.72222 5.94772 5.14506 5.5 5.66667 5.5H6.61111C7.13271 5.5 7.55556 5.94772 7.55556 6.5V11C7.55556 11.5523 7.13271 12 6.61111 12H5.66667C5.14506 12 4.72222 11.5523 4.72222 11V6.5Z" fill="#121213"/>
<path d="M0 9C0 8.44772 0.422842 8 0.944444 8H1.88889C2.41049 8 2.83333 8.44772 2.83333 9V11C2.83333 11.5523 2.41049 12 1.88889 12H0.944444C0.422842 12 0 11.5523 0 11V9Z" fill="#121213"/>
</svg>
