<svg width="249" height="193" viewBox="0 0 249 193" fill="none" xmlns="http://www.w3.org/2000/svg">
<g clip-path="url(#clip0_1_4628)">
<path d="M150.854 87.3768L154.274 69.7392L144.981 47.9488L134.59 37.1266C134.59 37.1266 133.916 36.6004 133.986 36.6321C150.644 43.8533 163.108 63.4563 165.186 87.1993C165.186 87.2437 165.199 87.3325 165.199 87.3325L150.854 87.3832V87.3768ZM145.547 87.4022L127.255 87.3388V37.6021C127.255 37.6021 127.408 37.7289 127.484 37.7923C138.219 47.0105 145.547 65.4217 145.547 86.6287C145.547 86.8887 145.547 87.4022 145.547 87.4022ZM165.129 87.3325L150.886 87.3768C150.886 87.3768 150.848 85.6904 150.816 84.7521C150.854 85.8489 150.886 81.5124 150.32 76.022C148.947 62.8096 144.931 52.1205 139.071 42.9783C136.694 39.2695 134.018 36.6955 134.018 36.6955L133.954 36.6067C133.954 36.6067 135.34 37.4373 136.122 37.9381C137.259 38.6672 138.397 39.4026 139.458 40.1571C143.285 42.8769 146.539 45.9645 148.267 47.7269C148.439 47.9045 149.043 48.5194 149.704 49.2549C150.365 49.984 151.089 50.8335 151.617 51.4675C153.791 54.0669 155.901 57.0149 157.776 60.3751C158.812 62.2327 159.682 64.1347 160.451 66.0303C163.617 73.7967 164.729 81.5504 165.091 86.6794C165.091 86.6668 165.136 87.3325 165.136 87.3325M165.091 86.6794C165.091 86.6794 165.091 86.6794 165.091 86.6858C165.091 86.6858 165.091 86.6858 165.091 86.6794ZM172.21 84.8662L165.167 56.4253L150.397 40.6643C150.397 40.6643 146.024 37.5704 143.526 35.8713C142.566 35.2183 141.778 34.8062 141.778 34.8062C141.778 34.8062 141.829 34.8315 141.861 34.8379C162.854 43.3017 177.854 63.4817 178.724 87.2627C178.724 87.2817 178.724 87.3261 178.724 87.3261L172.21 84.8599V84.8662ZM170.525 87.3451C170.525 87.3451 170.004 81.5885 168.975 76.4468C168.097 72.0596 166.699 68.2239 166.534 67.7548C165.657 65.2695 164.672 62.48 163.14 59.4748C160.382 54.0605 157.566 48.9949 152.5 43.6567C150.956 42.0274 149.24 40.2902 147.2 38.6165C145.846 37.5007 144.657 36.6257 143.787 36.0234C144.295 36.3278 144.943 36.7145 145.751 37.1773C147.251 38.0395 149.043 39.0983 150.956 40.379C151.814 40.9559 152.608 41.5709 153.498 42.2366C153.689 42.3824 156.396 44.4619 159.053 46.9725C161.271 49.071 163.369 51.4675 164.792 53.2427C167.379 56.4697 169.852 60.2103 171.987 64.4263C174.485 69.3461 176.125 74.3356 177.123 78.7292C177.873 82.0386 178.438 87.3451 178.438 87.3451H170.532H170.525ZM165.136 87.3325L150.892 87.3768C150.892 87.3768 150.854 85.6904 150.822 84.7521C150.861 85.8489 150.892 81.5124 150.327 76.022C148.954 62.8096 144.937 52.1205 139.077 42.9783C136.7 39.2695 134.024 36.6955 134.024 36.6955L133.961 36.6067C133.961 36.6067 135.346 37.4373 136.128 37.9381C137.266 38.6672 138.403 39.4026 139.465 40.1571C143.291 42.8769 146.545 45.9645 148.274 47.7269C148.445 47.9045 149.049 48.5194 149.71 49.2549C150.371 49.984 151.096 50.8335 151.623 51.4675C153.797 54.0669 155.907 57.0149 157.782 60.3751C158.818 62.2327 159.689 64.1347 160.458 66.0303C163.623 73.7967 164.735 81.5504 165.098 86.6794C165.098 86.6668 165.142 87.3325 165.142 87.3325M165.098 86.6794C165.098 86.6794 165.098 86.6794 165.098 86.6858C165.098 86.6858 165.098 86.6858 165.098 86.6794ZM114.417 37.1329L104.025 47.9615L94.7391 69.7582L98.1585 87.4022L83.8136 87.3451C83.8136 87.3451 83.8199 87.2564 83.8263 87.212C85.911 63.4626 98.3683 43.8533 115.027 36.6321C115.09 36.6067 114.423 37.1266 114.423 37.1266M103.466 87.4276C103.466 87.4276 103.466 86.914 103.466 86.6541C103.466 65.4407 110.787 47.0232 121.529 37.805C121.605 37.7416 121.758 37.6084 121.758 37.6084V87.3642L103.472 87.4276H103.466ZM114.989 36.7018C114.989 36.7018 112.313 39.2758 109.936 42.9847C104.082 52.1269 100.059 62.8223 98.6861 76.0347C98.114 81.5251 98.1458 85.8616 98.1903 84.7648C98.1585 85.7094 98.1204 87.3959 98.1204 87.3959L83.8771 87.3515C83.8771 87.3515 83.9153 86.7682 83.9216 86.7048C84.2839 81.5758 85.3898 73.8221 88.555 66.0493C89.3304 64.1537 90.1948 62.2581 91.2307 60.3941C93.1057 57.034 95.2158 54.0859 97.3895 51.4865C97.917 50.8525 98.6352 50.0093 99.2962 49.2739C99.9572 48.5448 100.561 47.9235 100.733 47.746C102.461 45.9835 105.716 42.8959 109.542 40.1761C110.603 39.4216 111.741 38.6799 112.879 37.9571C113.654 37.4563 115.046 36.6257 115.046 36.6257L114.976 36.7145L114.989 36.7018ZM105.487 35.884C102.989 37.5831 98.6162 40.677 98.6162 40.677L83.8453 56.438L76.3328 87.3705L70.2885 87.3515C70.2885 87.3515 70.2885 87.3134 70.2885 87.2881C71.1529 63.5007 86.1525 43.3144 107.146 34.8506C107.171 34.8379 107.228 34.8189 107.228 34.8189C107.228 34.8189 106.44 35.231 105.48 35.884M96.5124 43.6567C91.4405 49.0013 88.6312 54.0669 85.8728 59.4812C84.3411 62.4863 83.3496 65.2759 82.4789 67.7611C82.3136 68.2303 80.9153 72.0723 80.0382 76.4595C79.0086 81.6012 78.4874 87.3642 78.4874 87.3642H70.5809C70.5809 87.3642 71.1465 82.0513 71.8965 78.7419C72.888 74.3483 74.5341 69.3524 77.032 64.439C79.1675 60.2229 81.6399 56.476 84.2267 53.249C85.6504 51.4738 87.7478 49.0774 89.966 46.9788C92.6227 44.4682 95.3239 42.3824 95.5209 42.2366C96.4107 41.5709 97.2052 40.9496 98.0632 40.3726C99.9763 39.092 101.769 38.0269 103.269 37.171C104.076 36.7082 104.724 36.3278 105.233 36.0171C104.368 36.6194 103.173 37.4943 101.819 38.6101C99.7793 40.2839 98.0632 42.021 96.5187 43.6504M114.989 36.6891C114.989 36.6891 112.313 39.2631 109.936 42.972C104.082 52.1142 100.059 62.8096 98.6861 76.022C98.114 81.5124 98.1458 85.8489 98.1903 84.7521C98.1585 85.6968 98.1204 87.3832 98.1204 87.3832L83.8771 87.3388C83.8771 87.3388 83.9153 86.7555 83.9216 86.6921C84.2839 81.5631 85.3898 73.8094 88.555 66.0367C89.3304 64.141 90.1948 62.2454 91.2307 60.3814C93.1057 57.0213 95.2158 54.0732 97.3895 51.4738C97.917 50.8399 98.6352 49.9966 99.2962 49.2612C99.9572 48.5321 100.561 47.9108 100.733 47.7333C102.461 45.9708 105.716 42.8832 109.542 40.1634C110.603 39.409 111.741 38.6672 112.879 37.9444C113.654 37.4436 115.046 36.6131 115.046 36.6131L114.976 36.7018L114.989 36.6891ZM135.136 17.0544H113.781C113.584 17.0544 113.425 16.8959 113.425 16.6994V15.8815C113.425 15.685 113.584 15.5265 113.781 15.5265H135.136C135.333 15.5265 135.492 15.685 135.492 15.8815V16.6994C135.492 16.8959 135.333 17.0544 135.136 17.0544ZM135.136 33.1388H113.781C113.584 33.1388 113.425 32.9803 113.425 32.7837V31.9659C113.425 31.7694 113.584 31.6109 113.781 31.6109H135.136C135.333 31.6109 135.492 31.7694 135.492 31.9659V32.7837C135.492 32.9803 135.333 33.1388 135.136 33.1388ZM181.546 93.0447H67.4665C67.2695 93.0447 67.1106 92.8862 67.1106 92.6897V91.7324C67.1106 91.5358 67.2695 91.3773 67.4665 91.3773H181.534C181.731 91.3773 181.889 91.5358 181.889 91.7324V92.6897C181.889 92.8862 181.731 93.0447 181.534 93.0447M122.457 4.34919H122.126C122.082 4.34919 122.05 4.31749 122.05 4.27311V3.44892C122.05 3.40454 122.082 3.37284 122.126 3.37284H122.457C122.501 3.37284 122.533 3.40454 122.533 3.44892V4.27311C122.533 4.31749 122.501 4.34919 122.457 4.34919ZM126.785 4.34919H126.454C126.41 4.34919 126.378 4.31749 126.378 4.27311V3.44892C126.378 3.40454 126.41 3.37284 126.454 3.37284H126.785C126.829 3.37284 126.861 3.40454 126.861 3.44892V4.27311C126.861 4.31749 126.829 4.34919 126.785 4.34919ZM122.056 4.26043H126.855V4.52037H122.056V4.26043ZM124.656 1.07779H124.268C124.217 1.07779 124.173 1.03341 124.173 0.982688V0.0950989C124.173 0.0443795 124.217 0 124.268 0H124.656C124.707 0 124.751 0.0443795 124.751 0.0950989V0.976348C124.751 1.02707 124.707 1.07145 124.656 1.07145M124.325 1.07145H124.611V6.6379H124.325V1.07145ZM116.209 14.4994V14.4614C116.228 9.72544 119.921 5.89613 124.471 5.89613C129.022 5.89613 132.696 9.70642 132.734 14.4233C132.734 14.4487 132.734 14.4931 132.734 14.4931H116.209V14.4994ZM134.831 17.0037H114.08C113.724 17.0037 113.438 16.7184 113.438 16.3633V16.1922C113.438 15.8371 113.724 15.5518 114.08 15.5518H134.831C135.187 15.5518 135.473 15.8371 135.473 16.1922V16.3633C135.473 16.7184 135.187 17.0037 134.831 17.0037ZM134.831 33.1451H114.08C113.724 33.1451 113.438 32.8598 113.438 32.5048V32.3336C113.438 31.9786 113.724 31.6933 114.08 31.6933H134.831C135.187 31.6933 135.473 31.9786 135.473 32.3336V32.5048C135.473 32.8598 135.187 33.1451 134.831 33.1451ZM125.507 30.3302H123.429C123.073 30.3302 122.787 30.0449 122.787 29.6899V18.614C122.787 18.259 123.073 17.9737 123.429 17.9737H125.507C125.863 17.9737 126.149 18.259 126.149 18.614V29.6899C126.149 30.0449 125.863 30.3302 125.507 30.3302ZM130.91 30.3302H128.831C128.476 30.3302 128.19 30.0449 128.19 29.6899V18.614C128.19 18.259 128.476 17.9737 128.831 17.9737H130.91C131.266 17.9737 131.552 18.259 131.552 18.614V29.6899C131.552 30.0449 131.266 30.3302 130.91 30.3302ZM120.073 30.3302H117.995C117.639 30.3302 117.353 30.0449 117.353 29.6899V18.614C117.353 18.259 117.639 17.9737 117.995 17.9737H120.073C120.429 17.9737 120.715 18.259 120.715 18.614V29.6899C120.715 30.0449 120.429 30.3302 120.073 30.3302ZM145.121 92.1001V89.5831C145.121 89.2852 145.363 89.0506 145.655 89.0506H150.695C150.994 89.0506 151.236 89.2915 151.236 89.5831V91.9289L145.121 92.1001ZM150.594 101.065H145.757C145.401 101.065 145.115 100.779 145.115 100.424V95.6061C145.115 95.251 145.401 94.9657 145.757 94.9657H150.594C150.95 94.9657 151.236 95.251 151.236 95.6061V100.424C151.236 100.779 150.95 101.065 150.594 101.065ZM164.659 92.1001V89.5831C164.659 89.2852 164.9 89.0506 165.193 89.0506H170.233C170.532 89.0506 170.767 89.2915 170.767 89.5831V91.9289L164.653 92.1001H164.659ZM170.131 101.065H165.295C164.939 101.065 164.653 100.779 164.653 100.424V95.6061C164.653 95.251 164.939 94.9657 165.295 94.9657H170.131C170.487 94.9657 170.773 95.251 170.773 95.6061V100.424C170.773 100.779 170.487 101.065 170.131 101.065ZM97.7327 91.9162V89.5704C97.7327 89.2725 97.9742 89.0316 98.2666 89.0316H103.307C103.605 89.0316 103.841 89.2725 103.841 89.5704V92.0874L97.7263 91.9162H97.7327ZM103.211 101.058H98.3746C98.0187 101.058 97.7327 100.773 97.7327 100.418V95.5934C97.7327 95.2383 98.0187 94.953 98.3746 94.953H103.211C103.567 94.953 103.853 95.2383 103.853 95.5934V100.418C103.853 100.773 103.567 101.058 103.211 101.058ZM78.1887 91.9162V89.5704C78.1887 89.2725 78.4302 89.0316 78.7289 89.0316H83.7691C84.0678 89.0316 84.303 89.2725 84.303 89.5704V92.0874L78.1887 91.9162ZM83.6674 101.058H78.8306C78.4747 101.058 78.1887 100.773 78.1887 100.418V95.5934C78.1887 95.2383 78.4747 94.953 78.8306 94.953H83.6674C84.0233 94.953 84.3093 95.2383 84.3093 95.5934V100.418C84.3093 100.773 84.0233 101.058 83.6674 101.058ZM121.421 91.9162V89.5704C121.421 89.2725 121.662 89.0316 121.955 89.0316H126.995C127.293 89.0316 127.535 89.2725 127.535 89.5704V92.0874L121.421 91.9162ZM126.899 101.058H122.063C121.707 101.058 121.421 100.773 121.421 100.418V95.5934C121.421 95.2383 121.707 94.953 122.063 94.953H126.899C127.255 94.953 127.541 95.2383 127.541 95.5934V100.418C127.541 100.773 127.255 101.058 126.899 101.058ZM181.248 93.0511H67.7589C67.403 93.0511 67.117 92.7658 67.117 92.4107V92.0303C67.117 91.6753 67.403 91.39 67.7589 91.39H181.248C181.603 91.39 181.889 91.6753 181.889 92.0303V92.4107C181.889 92.7658 181.603 93.0511 181.248 93.0511ZM181.248 106.447H67.7525C67.3966 106.447 67.1106 106.162 67.1106 105.807V103.132C67.1106 102.777 67.3966 102.491 67.7525 102.491H181.248C181.603 102.491 181.889 102.777 181.889 103.132V105.807C181.889 106.162 181.603 106.447 181.248 106.447Z" fill="#003876"/>
<path d="M182.055 157.706H66.939V162.638H182.055V157.706Z" fill="#ED232A"/>
<path d="M66.958 120.782V120.763C66.958 118.664 68.5025 116.813 70.7969 116.813C72.0871 116.813 72.8879 117.187 73.6506 117.828L73.0913 118.481C72.5002 117.967 71.8456 117.606 70.7588 117.606C69.0618 117.606 67.8478 119.038 67.8478 120.738V120.757C67.8478 122.582 69.0173 123.933 70.8795 123.933C71.7566 123.933 72.5638 123.597 73.0913 123.166V121.264H70.7588V120.49H73.9239V123.54C73.2121 124.174 72.138 124.706 70.8478 124.706C68.4389 124.706 66.9517 122.956 66.9517 120.776" fill="#003876"/>
<path d="M76.7842 120.782V120.763C76.7842 118.658 78.3731 116.813 80.6993 116.813C83.0255 116.813 84.5954 118.639 84.5954 120.744C84.5954 120.744 84.5954 120.75 84.5954 120.763C84.5954 122.868 83.0065 124.713 80.6803 124.713C78.3541 124.713 76.7842 122.887 76.7842 120.782ZM83.6993 120.782V120.763C83.6993 119.026 82.4281 117.606 80.6803 117.606C78.9324 117.606 77.6803 119 77.6803 120.738V120.757C77.6803 122.494 78.9515 123.914 80.6993 123.914C82.4472 123.914 83.6993 122.519 83.6993 120.782Z" fill="#003876"/>
<path d="M87.6714 116.94H90.9319C91.809 116.94 92.4954 117.194 92.934 117.618C93.2518 117.948 93.4297 118.347 93.4297 118.842V118.861C93.4297 119.856 92.8196 120.37 92.2158 120.63C93.1246 120.902 93.8555 121.429 93.8555 122.475V122.494C93.8555 123.806 92.7496 124.58 91.0781 124.58H87.6714V116.94ZM90.7921 120.344C91.8344 120.344 92.5526 119.875 92.5526 118.981V118.956C92.5526 118.202 91.9488 117.713 90.8556 117.713H88.5231V120.344H90.7857H90.7921ZM91.0971 123.806C92.2603 123.806 92.9784 123.293 92.9784 122.443V122.424C92.9784 121.593 92.2793 121.112 90.9446 121.112H88.5294V123.806H91.1035H91.0971Z" fill="#003876"/>
<path d="M97.7645 116.94H96.9001V124.58H97.7645V116.94Z" fill="#003876"/>
<path d="M101.254 116.94H106.796V117.726H102.118V120.338H106.3V121.124H102.118V123.793H106.847V124.58H101.254V116.94Z" fill="#003876"/>
<path d="M109.834 116.94H113.126C114.067 116.94 114.823 117.225 115.306 117.707C115.681 118.081 115.897 118.614 115.897 119.216V119.235C115.897 120.503 115.02 121.245 113.819 121.46L116.171 124.586H115.109L112.885 121.619H110.698V124.586H109.834V116.946V116.94ZM113.05 120.839C114.2 120.839 115.02 120.249 115.02 119.267V119.241C115.02 118.303 114.296 117.732 113.063 117.732H110.698V120.833H113.05V120.839Z" fill="#003876"/>
<path d="M118.993 116.94H119.806L124.63 123.064V116.94H125.476V124.58H124.783L119.838 118.316V124.58H118.993V116.94Z" fill="#003876"/>
<path d="M128.545 120.782V120.763C128.545 118.658 130.134 116.813 132.461 116.813C134.787 116.813 136.357 118.639 136.357 120.744C136.357 120.744 136.357 120.75 136.357 120.763C136.357 122.868 134.768 124.713 132.435 124.713C130.103 124.713 128.539 122.887 128.539 120.782M135.454 120.782V120.763C135.454 119.026 134.183 117.606 132.435 117.606C130.687 117.606 129.435 119 129.435 120.738V120.757C129.435 122.494 130.706 123.914 132.454 123.914C134.202 123.914 135.454 122.519 135.454 120.782Z" fill="#003876"/>
<path d="M143.965 116.94H146.628C149.037 116.94 150.695 118.588 150.695 120.738V120.763C150.695 122.912 149.03 124.586 146.628 124.586H143.965V116.946V116.94ZM146.628 123.787C148.566 123.787 149.799 122.475 149.799 120.782V120.763C149.799 119.07 148.56 117.739 146.628 117.739H144.835V123.787H146.628Z" fill="#003876"/>
<path d="M153.771 116.94H159.307V117.726H154.636V120.338H158.818V121.124H154.636V123.793H159.365V124.58H153.771V116.94Z" fill="#003876"/>
<path d="M166.884 116.94H167.748V123.787H172.057V124.58H166.884V116.94Z" fill="#003876"/>
<path d="M177.739 116.889H178.546L182.036 124.586H181.108L180.211 122.57H176.042L175.133 124.586H174.243L177.733 116.889H177.739ZM179.875 121.79L178.133 117.891L176.385 121.79H179.875Z" fill="#003876"/>
<path d="M11.6121 142.211C10.6142 142.541 9.2414 142.496 8.29439 141.279L5.86013 138.16C5.18006 137.278 4.37288 137.152 3.26698 137.133V140.188C3.26698 141.292 4.02331 141.482 5.03388 141.609C5.14193 141.621 5.06566 142.141 4.93855 142.141H0.159006C0.0318902 142.141 -0.0634464 141.621 0.063669 141.609C0.870852 141.494 1.37296 141.184 1.37296 140.188V133.157C1.37296 132.118 0.820006 131.82 0.063669 131.617C-0.0634464 131.585 0.0191786 131.065 0.159006 131.078C0.775515 131.154 1.46829 131.173 1.97676 131.173C3.14622 131.173 4.23305 131.078 4.99575 131.078C7.37916 131.078 8.97446 132.054 8.97446 133.994C8.97446 135.82 7.48721 136.721 6.15885 136.797V136.873C6.79443 136.873 7.25205 137.139 7.94482 138.008L10.2965 140.956C10.7859 141.571 11.2562 141.742 11.6057 141.742C11.7329 141.742 11.7011 142.167 11.6057 142.198M6.97875 134.413C6.97875 132.726 5.90462 131.889 4.5 131.889C3.5657 131.889 3.26698 132.27 3.26698 133.151V136.397H3.72459C6.07623 136.397 6.97875 135.985 6.97875 134.413Z" fill="#003876"/>
<path d="M14.1607 141.609C15.0759 141.374 15.7877 141.228 15.7877 140.062V133.062C15.7877 132.054 15.1395 131.788 14.4594 131.611C14.3323 131.579 14.4149 131.059 14.5357 131.072C15.6924 131.198 17.6818 131.167 18.6415 131.167C20.0779 131.167 21.1202 131.103 22.4168 131.072C22.7982 131.072 22.7982 131.325 22.7155 131.687L22.3342 133.183C22.2897 133.405 21.8956 133.405 21.8321 133.183C21.5969 132.409 21.1202 131.972 19.1436 131.972C18.0377 131.972 17.6754 132.257 17.6754 133.075V135.643C17.6754 136.055 17.8788 136.131 18.1966 136.131H18.5461C19.8237 136.131 20.9296 136.004 21.5778 135.421C21.7367 135.281 22.0863 135.307 21.9401 135.624L21.0376 137.608C20.9105 137.893 20.6753 137.862 20.4974 137.621C20.1351 137.12 19.3279 136.911 18.4127 136.911H18.1902C17.8724 136.911 17.669 136.987 17.669 137.399V140.049C17.669 140.949 18.0504 141.279 19.3597 141.279C21.7431 141.279 22.6965 140.188 23.0715 139.592C23.1795 139.421 23.6117 139.497 23.6117 139.764C23.6117 140.569 22.9316 142.16 21.9338 142.16C21.0503 142.116 20.1796 142.065 18.8512 142.065C17.3958 142.065 15.6733 142.021 14.2369 142.16C14.078 142.179 14.0145 141.621 14.1416 141.596" fill="#003876"/>
<path d="M29.9357 137.919V140.188C29.9357 141.292 30.692 141.482 31.7026 141.609C31.8106 141.621 31.7344 142.141 31.6073 142.141H26.8214C26.6942 142.141 26.5989 141.621 26.726 141.609C27.5332 141.494 28.0353 141.184 28.0353 140.188V133.157C28.0353 132.118 27.4824 131.82 26.726 131.611C26.5989 131.579 26.6815 131.059 26.8214 131.072C27.4379 131.148 28.1306 131.167 28.6391 131.167C29.8086 131.167 30.7874 131.072 31.5945 131.072C34.0415 131.072 36.069 131.972 36.069 134.444C36.069 137.253 33.4314 138.432 29.9357 137.912M29.9357 133.151V137.139C32.6242 137.519 34.0288 136.873 34.0288 134.806C34.0288 132.929 32.8276 131.889 31.2005 131.889C30.2026 131.889 29.9357 132.238 29.9357 133.151Z" fill="#003876"/>
<path d="M40.5307 138.014V133.062C40.5307 132.067 40.0222 131.737 39.2531 131.642C39.126 131.629 39.2214 131.103 39.3485 131.103H43.664C43.7912 131.103 43.8865 131.623 43.7594 131.642C43.1302 131.718 42.4946 131.959 42.4946 133.062V138.09C42.4946 140.296 43.7721 141.323 45.45 141.323C47.1279 141.323 48.5453 140.296 48.5453 138.09V133.062C48.5453 132.035 47.9605 131.756 47.1851 131.642C47.0771 131.629 47.1534 131.103 47.2805 131.103H50.8334C50.9414 131.103 51.0367 131.623 50.9096 131.642C50.2804 131.718 49.6448 131.959 49.6448 133.062V137.995C49.6448 140.892 47.7635 142.395 45.253 142.395C43.0285 142.395 40.5307 141.215 40.5307 138.014ZM45.1767 127.185C45.4627 126.773 46.7911 127.99 46.4097 128.276L44.3378 129.835C44.1344 129.994 43.5814 129.487 43.734 129.265L45.1704 127.185H45.1767Z" fill="#003876"/>
<path d="M63.5703 138.965C63.5703 140.918 61.7844 142.179 59.1467 142.179C58.3904 142.179 57.5069 142.084 56.3375 142.084C55.3396 142.084 54.5833 142.097 53.8587 142.179C53.7189 142.198 53.6363 141.647 53.7634 141.615C54.6786 141.38 55.3905 141.235 55.3905 140.068V133.069C55.3905 132.061 54.7422 131.794 54.0621 131.617C53.935 131.585 54.0176 131.065 54.1384 131.078C54.7867 131.16 55.543 131.173 56.0515 131.173C57.3163 131.173 58.2442 131.078 58.9433 131.078C60.9835 131.078 62.6551 131.928 62.6742 133.665C62.6932 134.939 61.7907 135.827 60.6848 136.042V136.137C62.153 136.137 63.5767 137.196 63.5767 138.959M57.2908 133.062V135.865H58.9179C60.0556 135.865 60.7166 135.3 60.7166 134.083C60.7166 132.587 59.706 131.889 58.4094 131.889C57.5705 131.889 57.2908 132.175 57.2908 133.056M61.5428 139.295C61.5428 137.564 60.3861 136.644 58.9179 136.644H57.2908V140.049C57.2908 140.918 57.7357 141.342 59.1086 141.342C60.4814 141.342 61.5428 140.93 61.5428 139.295Z" fill="#003876"/>
<path d="M66.5957 141.609C67.5109 141.374 68.2228 141.228 68.2228 140.062V133.062C68.2228 131.959 67.5745 131.737 66.8944 131.642C66.7673 131.629 66.8627 131.103 66.9707 131.103H71.3308C71.4388 131.103 71.5214 131.623 71.407 131.642C70.746 131.718 70.1105 131.959 70.1105 133.062V140.062C70.1105 140.962 70.4918 141.292 71.8011 141.292C74.1845 141.292 75.1379 140.201 75.5129 139.605C75.6209 139.434 76.0531 139.51 76.0531 139.776C76.0531 140.581 75.373 142.173 74.3752 142.173C73.4917 142.128 72.621 142.078 71.2926 142.078C69.8372 142.078 68.1147 142.033 66.6783 142.173C66.5194 142.192 66.4559 141.634 66.583 141.609" fill="#003876"/>
<path d="M78.8432 141.609C79.6504 141.501 80.1525 141.184 80.1525 140.188V133.062C80.1525 132.067 79.6441 131.756 78.8432 131.642C78.7161 131.629 78.8114 131.103 78.9386 131.103H83.2668C83.394 131.103 83.4893 131.623 83.3622 131.642C82.6821 131.737 82.0529 131.959 82.0529 133.062V140.188C82.0529 141.292 82.6821 141.513 83.3622 141.609C83.4893 141.621 83.394 142.147 83.2668 142.147H78.9386C78.8114 142.147 78.7161 141.628 78.8432 141.609Z" fill="#003876"/>
<path d="M86.699 136.835C86.699 134.108 88.3705 130.862 92.8005 130.862C94.631 130.862 96.2136 131.433 96.0229 131.985L95.8195 132.6C95.2538 134.286 94.6373 132.124 91.8217 132.124C89.5654 132.124 88.4595 133.589 88.4595 135.858C88.4595 139.402 91.1607 140.886 93.328 140.886C93.614 140.886 95.0505 140.664 95.8703 140.144C95.9975 140.068 96.328 140.429 96.2326 140.569C95.5526 141.564 93.4361 142.395 92.9467 142.395C90.29 142.395 86.7053 140.848 86.7053 136.828" fill="#003876"/>
<path d="M110.66 142.148H106.491C106.288 142.148 106.269 141.64 106.447 141.609C107.031 141.501 107.66 141.292 107.076 139.935L106.904 139.542C106.745 139.161 106.478 139.13 106.002 139.13H102.779C102.303 139.13 102.036 139.161 101.877 139.542L101.718 139.935C101.165 141.292 101.762 141.495 102.525 141.609C102.728 141.64 102.684 142.148 102.474 142.148H99.0611C98.8704 142.148 98.826 141.64 99.0103 141.609C99.6586 141.501 100.04 141.279 100.625 139.935L103.294 133.823C103.911 132.435 104.101 131.788 104.101 131.192C104.101 131.097 105.207 130.843 105.258 130.958L109.116 139.922C109.688 141.26 110.063 141.514 110.699 141.609C110.921 141.64 110.857 142.148 110.667 142.148M106.256 138.001L104.406 133.589L102.544 138.001C102.449 138.223 102.684 138.255 102.906 138.255H105.894C106.116 138.255 106.351 138.223 106.256 138.001Z" fill="#003876"/>
<path d="M118.313 141.609C119.228 141.368 119.94 141.228 119.94 140.062V133.062C119.94 132.054 119.292 131.788 118.611 131.611C118.484 131.579 118.567 131.059 118.688 131.072C119.336 131.148 119.997 131.167 120.664 131.167C121.897 131.167 123.003 131.072 123.81 131.072C127.637 131.072 129.702 133.341 129.702 136.384C129.702 139.428 127.63 142.167 123.791 142.167C123.029 142.167 122.05 142.071 120.887 142.071C119.908 142.071 119.133 142.084 118.408 142.167C118.249 142.186 118.186 141.634 118.313 141.602M127.808 137.285C127.808 134.273 126.162 131.909 123.321 131.909C122.202 131.909 121.834 132.257 121.834 133.062V140.062C121.834 140.911 122.419 141.336 123.95 141.336C126.524 141.336 127.808 139.948 127.808 137.285Z" fill="#003876"/>
<path d="M133.141 136.695C133.141 133.513 135.416 130.862 138.874 130.862C142.331 130.862 144.575 133.278 144.575 136.549C144.575 139.821 142.318 142.395 138.842 142.395C135.556 142.395 133.141 139.967 133.141 136.689M142.7 137.431C142.7 134.248 140.532 131.928 138.263 131.928C136.871 131.928 135.041 132.84 135.041 135.801C135.041 139.016 137.208 141.317 139.465 141.317C140.857 141.317 142.706 140.404 142.706 137.424" fill="#003876"/>
<path d="M161.78 142.147H157.655C157.547 142.147 157.464 141.628 157.559 141.615C158.22 141.501 158.716 141.19 158.665 140.195L158.367 134.901L155.805 140.106C155.475 140.784 155.221 141.475 155.17 141.729C155.138 141.919 154.807 142.014 154.553 142.014C154.318 142.014 154.159 141.919 154.064 141.729L150.416 134.825L150.18 140.201C150.13 141.304 150.778 141.558 151.286 141.621C151.413 141.634 151.318 142.154 151.21 142.154H147.943C147.816 142.154 147.721 141.634 147.848 141.621C148.528 141.545 149.094 141.304 149.157 140.201L149.659 131.154C149.672 130.888 150.276 130.869 150.435 131.154L155.017 139.694L159.269 131.154C159.409 130.869 160.045 130.888 160.057 131.154L160.566 140.201C160.629 141.304 161.195 141.539 161.862 141.621C161.989 141.634 161.894 142.154 161.786 142.154" fill="#003876"/>
<path d="M165.021 141.609C165.828 141.501 166.33 141.184 166.33 140.188V133.062C166.33 132.067 165.822 131.756 165.021 131.642C164.894 131.629 164.989 131.103 165.117 131.103H169.445C169.572 131.103 169.667 131.623 169.54 131.642C168.86 131.737 168.231 131.959 168.231 133.062V140.188C168.231 141.292 168.86 141.513 169.54 141.609C169.667 141.621 169.572 142.147 169.445 142.147H165.117C164.989 142.147 164.894 141.628 165.021 141.609Z" fill="#003876"/>
<path d="M182.531 142.002L175.012 134.153V140.144C175.012 141.215 175.642 141.387 176.544 141.609C176.671 141.64 176.608 142.147 176.449 142.147H172.705C172.578 142.147 172.483 141.659 172.629 141.609C173.29 141.387 173.926 141.26 173.926 140.144V134.026C173.926 132.91 173.754 132.371 173.341 131.82C173.201 131.629 173.055 131.503 173.055 131.458C173.055 131.319 173.15 131.11 173.373 131.11H174.542C174.701 131.11 174.809 131.122 174.923 131.249L182.283 139.022V133.094C182.283 131.978 181.572 131.851 180.752 131.642C180.625 131.61 180.688 131.11 180.847 131.11H184.59C184.718 131.11 184.794 131.61 184.667 131.642C183.974 131.845 183.37 131.972 183.37 133.094V139.225C183.37 140.264 183.402 141.418 183.561 141.995C183.624 142.23 183.37 142.293 183.116 142.293C182.849 142.293 182.703 142.185 182.531 141.995" fill="#003876"/>
<path d="M187.832 141.609C188.639 141.501 189.141 141.184 189.141 140.188V133.062C189.141 132.067 188.633 131.756 187.832 131.642C187.705 131.629 187.8 131.103 187.927 131.103H192.256C192.383 131.103 192.478 131.623 192.351 131.642C191.671 131.737 191.042 131.959 191.042 133.062V140.188C191.042 141.292 191.671 141.513 192.351 141.609C192.478 141.621 192.383 142.147 192.256 142.147H187.927C187.8 142.147 187.705 141.628 187.832 141.609Z" fill="#003876"/>
<path d="M195.688 136.835C195.688 134.108 197.359 130.862 201.783 130.862C203.613 130.862 205.196 131.433 205.005 131.985L204.802 132.6C204.23 134.286 203.62 132.124 200.804 132.124C198.548 132.124 197.442 133.589 197.442 135.858C197.442 139.402 200.143 140.886 202.31 140.886C202.596 140.886 204.033 140.664 204.853 140.144C204.98 140.068 205.31 140.429 205.215 140.569C204.535 141.564 202.418 142.395 201.929 142.395C199.272 142.395 195.688 140.848 195.688 136.828" fill="#003876"/>
<path d="M219.643 142.148H215.473C215.27 142.148 215.251 141.64 215.422 141.609C216.007 141.501 216.636 141.292 216.052 139.935L215.88 139.542C215.721 139.161 215.454 139.13 214.978 139.13H211.755C211.285 139.13 211.012 139.161 210.853 139.542L210.694 139.935C210.141 141.292 210.738 141.495 211.501 141.609C211.704 141.64 211.66 142.148 211.456 142.148H208.043C207.853 142.148 207.808 141.64 207.999 141.609C208.647 141.501 209.022 141.279 209.613 139.935L212.283 133.823C212.899 132.435 213.09 131.788 213.09 131.192C213.09 131.097 214.196 130.843 214.247 130.958L218.098 139.922C218.67 141.26 219.045 141.514 219.681 141.609C219.903 141.64 219.84 142.148 219.649 142.148M215.238 138.001L213.389 133.589L211.526 138.001C211.431 138.223 211.666 138.255 211.889 138.255H214.876C215.098 138.255 215.333 138.223 215.238 138.001Z" fill="#003876"/>
<path d="M232.513 142.002L224.994 134.153V140.144C224.994 141.215 225.624 141.387 226.526 141.609C226.653 141.64 226.59 142.147 226.431 142.147H222.687C222.56 142.147 222.465 141.659 222.611 141.609C223.272 141.387 223.907 141.26 223.907 140.144V134.026C223.907 132.91 223.736 132.371 223.323 131.82C223.183 131.629 223.037 131.503 223.037 131.458C223.037 131.319 223.132 131.11 223.355 131.11H224.524C224.683 131.11 224.791 131.122 224.905 131.249L232.272 139.022V133.094C232.272 131.978 231.56 131.851 230.74 131.642C230.613 131.61 230.676 131.11 230.835 131.11H234.579C234.706 131.11 234.782 131.61 234.655 131.642C233.962 131.845 233.358 131.972 233.358 133.094V139.225C233.358 140.264 233.39 141.418 233.549 141.995C233.613 142.23 233.358 142.293 233.104 142.293C232.837 142.293 232.691 142.185 232.52 141.995" fill="#003876"/>
<path d="M248.828 142.148H244.659C244.456 142.148 244.437 141.64 244.608 141.609C245.193 141.501 245.822 141.292 245.237 139.935L245.066 139.542C244.907 139.161 244.64 139.13 244.163 139.13H240.941C240.471 139.13 240.197 139.161 240.038 139.542L239.879 139.935C239.327 141.292 239.924 141.495 240.687 141.609C240.89 141.64 240.846 142.148 240.636 142.148H237.223C237.032 142.148 236.988 141.64 237.172 141.609C237.82 141.501 238.195 141.279 238.786 139.935L241.456 133.823C242.072 132.435 242.263 131.788 242.263 131.192C242.263 131.097 243.369 130.843 243.42 130.958L247.278 139.922C247.843 141.26 248.225 141.514 248.854 141.609C249.076 141.64 249.013 142.148 248.822 142.148M244.411 138.001L242.562 133.589L240.699 138.001C240.604 138.223 240.839 138.255 241.062 138.255H244.049C244.271 138.255 244.506 138.223 244.411 138.001Z" fill="#003876"/>
<path d="M54.8185 191.897C56.0007 191.593 56.9032 191.409 56.9032 189.9V180.941C56.9032 179.68 56.0897 179.356 55.2062 179.109C55.041 179.071 55.1427 178.355 55.3079 178.374C56.7761 178.558 59.6553 178.494 60.6976 178.494C62.5535 178.494 63.8628 178.412 65.5979 178.374C66.0873 178.374 66.1064 178.697 66.0047 179.166L65.5153 181.119C65.4517 181.404 64.9433 181.404 64.8606 181.119C64.5365 180.098 63.9391 179.591 61.4285 179.591C60.0811 179.591 59.6298 179.959 59.6298 180.954V184.232C59.6298 184.764 59.8968 184.866 60.3036 184.866H60.7739C62.3247 184.866 63.7929 184.663 64.5937 183.991C64.7971 183.807 65.2483 183.845 65.064 184.276L63.92 186.844C63.7547 187.25 63.4306 187.212 63.2081 186.888C62.7378 186.216 61.7145 185.95 60.6341 185.95H60.3099C59.9031 185.95 59.6362 186.051 59.6362 186.584V189.906C59.6362 191.066 60.062 191.535 61.7209 191.535C64.6191 191.535 65.9856 190.071 66.4559 189.355C66.5958 189.152 67.1932 189.272 67.1932 189.621C67.1932 190.578 66.278 192.734 64.9687 192.715C63.7039 192.651 62.7251 192.594 61.0281 192.594C59.1722 192.594 56.7825 192.531 54.9456 192.715C54.7423 192.734 54.6596 191.941 54.8249 191.903" fill="#ED232A"/>
<path d="M69.3923 191.897C70.5744 191.593 71.4769 191.409 71.4769 189.9V180.941C71.4769 179.68 70.6571 179.331 69.78 179.109C69.6147 179.065 69.7164 178.355 69.8816 178.374C70.7206 178.475 71.5723 178.494 72.5574 178.494C74.2735 178.494 75.6972 178.374 76.7205 178.374C81.5763 178.374 84.3347 181.303 84.3347 185.234C84.3347 189.164 81.6398 192.708 76.7014 192.708C75.7417 192.708 74.4769 192.588 72.8434 192.588C71.4579 192.588 70.4537 192.607 69.5194 192.708C69.316 192.727 69.2334 191.935 69.3986 191.897M81.6271 186.521C81.6271 182.533 79.5424 179.515 76.0531 179.515C74.7057 179.515 74.2163 179.94 74.2163 180.941V189.9C74.2163 190.978 75.0743 191.567 77.051 191.567C80.1971 191.567 81.6208 189.855 81.6208 186.514" fill="#ED232A"/>
<path d="M88.5739 187.319V181.011C88.5739 179.75 87.9638 179.299 86.9405 179.179C86.7752 179.16 86.9024 178.425 87.0612 178.425H92.8958C93.0611 178.425 93.1819 179.16 93.0166 179.179C92.1776 179.261 91.3641 179.585 91.3641 181.011V187.427C91.3641 190.236 92.9975 191.497 95.0377 191.497C97.1796 191.497 98.9148 190.236 98.9148 187.427V181.011C98.9148 179.705 98.1775 179.318 97.1796 179.179C97.0398 179.16 97.1415 178.425 97.3004 178.425H101.997C102.143 178.425 102.264 179.16 102.08 179.179C101.285 179.261 100.466 179.585 100.466 181.011V187.3C100.466 191.066 98.0377 193 94.7517 193C91.8344 193 88.5676 191.472 88.5676 187.319" fill="#ED232A"/>
<path d="M104.826 185.83C104.826 182.33 106.949 178.095 112.745 178.095C115.135 178.095 117.175 178.83 116.908 179.54L116.622 180.396C115.802 182.78 115.154 179.826 111.398 179.826C108.518 179.826 107.254 181.721 107.254 184.511C107.254 189.114 110.762 190.901 113.4 190.901C113.787 190.901 115.789 190.616 116.666 190.046C116.832 189.944 117.302 190.451 117.175 190.635C116.298 191.916 113.52 192.994 112.847 192.994C109.415 192.994 104.826 190.997 104.826 185.83Z" fill="#ED232A"/>
<path d="M134.278 192.677H128.641C128.355 192.677 128.355 191.986 128.577 191.941C129.314 191.795 130.147 191.554 129.397 189.824L129.232 189.475C129.028 188.968 128.742 188.904 128.17 188.904H124.09C123.48 188.904 123.194 188.968 122.99 189.475L122.87 189.824C122.158 191.535 122.933 191.821 123.912 191.941C124.179 191.979 124.115 192.677 123.848 192.677H119.336C119.094 192.677 119.031 191.986 119.272 191.941C120.111 191.795 120.601 191.535 121.332 189.824L124.783 181.88C125.577 180.086 125.825 179.293 125.825 178.52C125.825 178.399 127.255 178.069 127.312 178.215L132.295 189.805C133.007 191.497 133.503 191.821 134.316 191.941C134.602 191.979 134.52 192.677 134.278 192.677ZM128.336 187.364L126.13 182.051L123.906 187.364C123.785 187.649 124.071 187.687 124.332 187.687H127.903C128.17 187.687 128.475 187.649 128.336 187.364Z" fill="#ED232A"/>
<path d="M135.829 185.83C135.829 182.33 137.952 178.095 143.748 178.095C146.138 178.095 148.178 178.83 147.911 179.54L147.625 180.396C146.812 182.78 146.157 179.826 142.401 179.826C139.522 179.826 138.257 181.721 138.257 184.511C138.257 189.114 141.765 190.901 144.403 190.901C144.791 190.901 146.793 190.616 147.67 190.046C147.835 189.944 148.305 190.451 148.178 190.635C147.301 191.916 144.524 192.994 143.85 192.994C140.424 192.994 135.829 190.997 135.829 185.83Z" fill="#ED232A"/>
<path d="M150.911 191.922C151.973 191.776 152.583 191.352 152.583 190.09V181.011C152.583 179.75 151.973 179.318 150.911 179.179C150.746 179.16 150.873 178.425 151.032 178.425H156.867C157.032 178.425 157.153 179.16 156.987 179.179C156.129 179.299 155.316 179.585 155.316 181.011V190.09C155.316 191.517 156.136 191.802 156.987 191.922C157.153 191.941 157.032 192.677 156.867 192.677H151.032C150.867 192.677 150.746 191.941 150.911 191.922Z" fill="#ED232A"/>
<path d="M159.81 185.627C159.81 181.512 162.771 178.095 167.239 178.095C171.708 178.095 174.65 181.189 174.65 185.443C174.65 189.697 171.714 192.994 167.201 192.994C162.975 192.994 159.81 189.881 159.81 185.62M171.955 186.641C171.955 182.609 169.242 179.578 166.426 179.578C164.691 179.578 162.53 180.758 162.53 184.422C162.53 188.518 165.244 191.51 168.059 191.51C169.775 191.51 171.962 190.331 171.962 186.641M167.309 173.302C167.678 172.776 169.451 174.424 168.962 174.766L166.312 176.763C166.045 176.966 165.288 176.256 165.492 175.971L167.309 173.302Z" fill="#ED232A"/>
<path d="M190.177 192.493L180.542 182.698V190.008C180.542 191.415 181.356 191.618 182.62 191.922C182.786 191.967 182.703 192.677 182.5 192.677H177.459C177.294 192.677 177.173 192.005 177.358 191.922C178.133 191.618 179.01 191.536 179.01 190.008V182.273C179.01 180.707 178.724 180.136 178.298 179.439C178.095 179.135 177.892 178.951 177.892 178.887C177.892 178.704 178.012 178.418 178.343 178.418H179.913C180.116 178.418 180.262 178.437 180.402 178.602L189.834 188.296V181.049C189.834 179.604 188.893 179.458 187.749 179.173C187.584 179.135 187.667 178.418 187.87 178.418H192.91C193.076 178.418 193.158 179.128 193.012 179.173C192.116 179.458 191.34 179.597 191.34 181.049V188.828C191.34 190.255 191.404 191.738 191.588 192.493C191.671 192.797 191.366 192.88 190.997 192.88C190.629 192.88 190.425 192.734 190.184 192.493" fill="#ED232A"/>
</g>
<defs>
<clipPath id="clip0_1_4628">
<rect width="249" height="193" fill="white"/>
</clipPath>
</defs>
</svg>
