<svg width="20" height="20" viewBox="0 0 20 20" fill="none" xmlns="http://www.w3.org/2000/svg">
<path d="M10 14.1667C10.4421 14.1667 10.866 13.9911 11.1786 13.6786C11.4911 13.366 11.6667 12.9421 11.6667 12.5C11.6667 12.058 11.4911 11.6341 11.1786 11.3215C10.866 11.009 10.4421 10.8334 10 10.8334C9.55801 10.8334 9.13409 11.009 8.82153 11.3215C8.50897 11.6341 8.33337 12.058 8.33337 12.5C8.33337 12.9421 8.50897 13.366 8.82153 13.6786C9.13409 13.9911 9.55801 14.1667 10 14.1667ZM15 6.66671C15.4421 6.66671 15.866 6.8423 16.1786 7.15486C16.4911 7.46742 16.6667 7.89135 16.6667 8.33337V16.6667C16.6667 17.1087 16.4911 17.5327 16.1786 17.8452C15.866 18.1578 15.4421 18.3334 15 18.3334H5.00004C4.55801 18.3334 4.13409 18.1578 3.82153 17.8452C3.50897 17.5327 3.33337 17.1087 3.33337 16.6667V8.33337C3.33337 7.89135 3.50897 7.46742 3.82153 7.15486C4.13409 6.8423 4.55801 6.66671 5.00004 6.66671H5.83337V5.00004C5.83337 3.89497 6.27236 2.83516 7.05376 2.05376C7.83516 1.27236 8.89497 0.833374 10 0.833374C10.5472 0.833374 11.089 0.941148 11.5946 1.15054C12.1001 1.35994 12.5594 1.66685 12.9463 2.05376C13.3332 2.44067 13.6401 2.9 13.8495 3.40553C14.0589 3.91105 14.1667 4.45287 14.1667 5.00004V6.66671H15ZM10 2.50004C9.337 2.50004 8.70111 2.76343 8.23227 3.23227C7.76343 3.70111 7.50004 4.337 7.50004 5.00004V6.66671H12.5V5.00004C12.5 4.337 12.2366 3.70111 11.7678 3.23227C11.299 2.76343 10.6631 2.50004 10 2.50004Z" fill="black"/>
</svg>
