<svg width="25" height="13" viewBox="0 0 25 13" fill="none" xmlns="http://www.w3.org/2000/svg">
<path d="M18.5996 1.63272e-09C20.8398 1.63272e-09 21.9608 -0.000427061 22.8164 0.435547C23.5689 0.819016 24.181 1.43109 24.5645 2.18359C25.0004 3.03924 25 4.16018 25 6.40039V6.59961C25 8.83982 25.0004 9.96076 24.5645 10.8164C24.181 11.5689 23.5689 12.181 22.8164 12.5645C21.9608 13.0004 20.8398 13 18.5996 13H6.40039C4.16018 13 3.03924 13.0004 2.18359 12.5645C1.43109 12.181 0.819016 11.5689 0.435547 10.8164C-0.000427061 9.96076 1.63272e-09 8.83982 1.63272e-09 6.59961V6.40039C1.63272e-09 4.16018 -0.000427061 3.03924 0.435547 2.18359C0.819016 1.43109 1.43109 0.819016 2.18359 0.435547C3.03924 -0.000427061 4.16018 1.63272e-09 6.40039 1.63272e-09H18.5996ZM9.29199 2.87988C8.81199 2.87988 8.38815 2.98996 8.02148 3.20996C7.65495 3.42994 7.37183 3.72017 7.17188 4.08008C6.9719 4.44006 6.87207 4.83002 6.87207 5.25C6.87207 5.71 6.97497 6.1102 7.18164 6.4502C7.3883 6.79018 7.66197 7.05358 8.00195 7.24023C8.34848 7.42013 8.71507 7.50972 9.10156 7.50977C9.3749 7.50977 9.62897 7.46655 9.8623 7.37988C10.1021 7.29323 10.3123 7.17278 10.4922 7.01953C10.672 6.86629 10.8122 6.69629 10.9121 6.50977V6.62012C10.8988 7.1799 10.8216 7.64628 10.6816 8.01953C10.5483 8.38618 10.3683 8.66294 10.1416 8.84961C9.91494 9.02961 9.64846 9.12012 9.3418 9.12012C9.0085 9.1201 8.7348 9.03677 8.52148 8.87012C8.31492 8.69679 8.18205 8.4529 8.12207 8.13965H7.01172C7.04505 8.48631 7.15513 8.81345 7.3418 9.12012C7.52846 9.42009 7.78566 9.66295 8.1123 9.84961C8.44561 10.0295 8.84901 10.1201 9.32227 10.1201C9.90874 10.12 10.405 9.95955 10.8115 9.63965C11.2249 9.31965 11.5386 8.87003 11.752 8.29004C11.972 7.71004 12.082 7.0331 12.082 6.25977C12.082 5.83992 12.0316 5.43014 11.9316 5.03027C11.8383 4.63029 11.685 4.27018 11.4717 3.9502C11.2584 3.62362 10.9722 3.36324 10.6123 3.16992C10.259 2.9766 9.81861 2.8799 9.29199 2.87988ZM15.4199 2.87988C14.9401 2.87989 14.517 2.99009 14.1504 3.20996C13.7837 3.42996 13.4998 3.72008 13.2998 4.08008C13.0999 4.44004 13 4.83006 13 5.25C13 5.70998 13.1029 6.11021 13.3096 6.4502C13.5162 6.7902 13.7899 7.05357 14.1299 7.24023C14.4765 7.42023 14.8438 7.50977 15.2305 7.50977C15.5036 7.50972 15.757 7.4665 15.9902 7.37988C16.2301 7.29322 16.4402 7.17281 16.6201 7.01953C16.8 6.86626 16.9401 6.69633 17.04 6.50977V6.62012C17.0267 7.17993 16.9495 7.64627 16.8096 8.01953C16.6762 8.3862 16.4962 8.66294 16.2695 8.84961C16.0429 9.02956 15.7763 9.12012 15.4697 9.12012C15.1367 9.12007 14.8636 9.03658 14.6504 8.87012C14.4437 8.69678 14.31 8.45298 14.25 8.13965H13.1396C13.173 8.4863 13.2831 8.81346 13.4697 9.12012C13.6564 9.42012 13.9136 9.66294 14.2402 9.84961C14.5736 10.0296 14.9769 10.1201 15.4502 10.1201C16.0368 10.1201 16.5338 9.95961 16.9404 9.63965C17.3535 9.31968 17.6666 8.8698 17.8799 8.29004C18.0999 7.71004 18.21 7.0331 18.21 6.25977C18.2099 5.8399 18.1595 5.43015 18.0596 5.03027C17.9662 4.63027 17.8129 4.2702 17.5996 3.9502C17.3863 3.62359 17.1001 3.36324 16.7402 3.16992C16.3869 2.97659 15.9466 2.87988 15.4199 2.87988ZM9.37207 3.91016C9.63189 3.91018 9.86163 3.96686 10.0615 4.08008C10.2682 4.18674 10.4318 4.34005 10.5518 4.54004C10.6718 4.73336 10.7314 4.95664 10.7314 5.20996C10.7314 5.44996 10.6718 5.67012 10.5518 5.87012C10.4318 6.06339 10.2681 6.21677 10.0615 6.33008C9.8616 6.43664 9.63504 6.49023 9.38184 6.49023C9.12185 6.49023 8.8883 6.43674 8.68164 6.33008C8.48172 6.22342 8.32212 6.07315 8.20215 5.87988C8.08884 5.6866 8.03226 5.46011 8.03223 5.2002C8.03223 4.94686 8.08881 4.72671 8.20215 4.54004C8.3221 4.34682 8.48177 4.19338 8.68164 4.08008C8.88164 3.96674 9.11207 3.91016 9.37207 3.91016ZM15.5 3.91016C15.76 3.91016 15.9904 3.96674 16.1904 4.08008C16.3969 4.18672 16.5598 4.34021 16.6797 4.54004C16.7997 4.73336 16.8603 4.95664 16.8604 5.20996C16.8604 5.44996 16.7997 5.67012 16.6797 5.87012C16.5598 6.06325 16.3969 6.2168 16.1904 6.33008C15.9904 6.43674 15.7631 6.49023 15.5098 6.49023C15.2499 6.4902 15.0162 6.43671 14.8096 6.33008C14.6097 6.22342 14.45 6.07312 14.3301 5.87988C14.2168 5.68661 14.1602 5.46009 14.1602 5.2002C14.1602 4.94686 14.2167 4.72671 14.3301 4.54004C14.45 4.34682 14.6097 4.19339 14.8096 4.08008C15.0096 3.96674 15.24 3.91016 15.5 3.91016Z" fill="#121213"/>
</svg>
