<svg width="17" height="12" viewBox="0 0 17 12" fill="none" xmlns="http://www.w3.org/2000/svg">
<path d="M6.11524 8.91875C7.53509 7.69292 9.6153 7.69294 11.0352 8.91875C11.1066 8.98468 11.1475 9.07827 11.1494 9.17656C11.1514 9.27484 11.1137 9.36942 11.0449 9.43828L8.82227 11.7283C8.7571 11.7956 8.66791 11.8338 8.5752 11.8338C8.4825 11.8338 8.3933 11.7956 8.32813 11.7283L6.1045 9.43828C6.03599 9.36942 5.99801 9.27468 6 9.17656C6.00204 9.07827 6.04375 8.98463 6.11524 8.91875ZM3.10938 6.17851C6.16846 3.27392 10.9058 3.27392 13.9648 6.17851C14.0338 6.24662 14.0732 6.3403 14.0742 6.43828C14.0751 6.53616 14.0373 6.63055 13.9697 6.7L12.6846 8.02519C12.5521 8.1605 12.338 8.16379 12.2022 8.03203C11.1977 7.1036 9.89123 6.58963 8.53614 6.58964C7.18182 6.59022 5.87597 7.10412 4.87208 8.03203C4.7362 8.1638 4.5221 8.16055 4.38965 8.02519L3.1045 6.7C3.03674 6.63064 2.99918 6.53622 3.00001 6.43828C3.00091 6.3403 3.04037 6.24661 3.10938 6.17851ZM0.107427 3.44218C4.79928 -1.14743 12.2007 -1.14736 16.8926 3.44218C16.9605 3.51037 16.9994 3.60373 17 3.70097C17.0005 3.79806 16.9625 3.89184 16.8955 3.96074L15.6094 5.28593C15.4769 5.42191 15.2616 5.42362 15.127 5.28984C13.3393 3.55507 10.9666 2.5878 8.5 2.58769C6.03337 2.58781 3.66078 3.55507 1.87305 5.28984C1.73851 5.42373 1.52304 5.42208 1.39063 5.28593L0.103521 3.96074C0.0365511 3.89181 -0.000494197 3.79804 4.97989e-06 3.70097C0.000631699 3.60373 0.0394613 3.51032 0.107427 3.44218Z" fill="#121213"/>
</svg>
