<svg width="20" height="20" viewBox="0 0 20 20" fill="none" xmlns="http://www.w3.org/2000/svg">
<path d="M7.34898 0.248816C8.63975 0.248816 9.84282 0.771893 10.8344 1.76266C11.9605 2.88882 12.4759 4.27343 12.3251 5.75343C12.2121 6.85189 11.7105 7.95959 10.9067 8.95035L16.4836 14.5273L17.4936 13.5173C17.9859 13.0227 18.3944 13.4327 18.8874 13.9265L19.3682 14.4311C19.8621 14.9227 20.2697 15.308 19.7767 15.8011L18.7682 16.8119L19.5605 17.6042C19.6779 17.7207 19.771 17.8593 19.8345 18.012C19.8981 18.1647 19.9308 18.3284 19.9308 18.4938C19.9308 18.6592 19.8981 18.8229 19.8345 18.9756C19.771 19.1283 19.6779 19.2669 19.5605 19.3834C19.0682 19.875 18.2751 19.875 17.7813 19.3834L9.03129 10.6334C8.08359 11.2273 7.05436 11.5465 6.05128 11.5465C4.76128 11.5465 3.5559 11.0234 2.56513 10.0319C1.43821 8.90651 0.923592 7.52189 1.07513 6.04189C1.21052 4.71035 1.91744 3.37035 3.0459 2.24343C4.32436 0.963431 5.85128 0.248816 7.34898 0.248816ZM7.30052 1.83497C6.22898 1.83497 5.1159 2.38343 4.15205 3.34959C3.29513 4.20343 2.76052 5.19728 2.66129 6.16189C2.55898 7.16497 2.91205 8.12035 3.69513 8.90266C4.39667 9.60266 5.21436 9.95959 6.09898 9.95959C7.17128 9.95959 8.28205 9.41035 9.24821 8.44574C10.1044 7.58959 10.639 6.59805 10.7382 5.63343C10.8397 4.63035 10.4882 3.67574 9.70436 2.89266C9.00282 2.19266 8.18436 1.83497 7.30052 1.83497Z" fill="white"/>
</svg>
